<svg width="40" height="40" viewBox="0 0 40 40" fill="none" xmlns="http://www.w3.org/2000/svg">
<rect x="-0.5" y="0.5" width="39" height="39" rx="4.5" transform="matrix(-1 0 0 1 39 0)" fill="#FCFDFF" stroke="#E1E3E6"/>
<path d="M20 28.0298H29" stroke="#787880" stroke-width="2" stroke-linecap="round" stroke-linejoin="round"/>
<path d="M24.5 11.5299C24.8978 11.132 25.4374 10.9085 26 10.9085C26.2786 10.9085 26.5544 10.9634 26.8118 11.07C27.0692 11.1766 27.303 11.3329 27.5 11.5299C27.697 11.7268 27.8532 11.9607 27.9598 12.2181C28.0665 12.4754 28.1213 12.7513 28.1213 13.0299C28.1213 13.3084 28.0665 13.5843 27.9598 13.8417C27.8532 14.099 27.697 14.3329 27.5 14.5299L15 27.0299L11 28.0299L12 24.0299L24.5 11.5299Z" stroke="#787880" stroke-width="2" stroke-linecap="round" stroke-linejoin="round"/>
</svg>
